<?xml version="1.0" encoding="UTF-8"?>
<svg xmlns="http://www.w3.org/2000/svg" id="Layer_2" data-name="Layer 2" viewBox="0 0 615 406.21">
  <defs>
    <style>
      .cls-1 {
        fill: none;
        stroke: #727272;
        stroke-linecap: round;
        stroke-linejoin: round;
        stroke-width: 6px;
      }

      .cls-2 {
        fill: #727272;
        stroke-width: 0px;
      }
    </style>
  </defs>
  <g id="GREEN">
    <g id="MAIN_LOGO" data-name="MAIN LOGO">
      <g>
        <path class="cls-2" d="M5.59,281.13l95.59,95.59v-95.59h5.59v125.08h-5.59L5.59,310.62v95.59H0v-125.08h5.59Z"></path>
        <path class="cls-2" d="M171.23,305.81l-17.69,37.86-29.1,62.54h-6.13l29.1-62.54,20.79-44.46,8.38-18.08h6.13l29.17,62.54,29.17,62.54h-22.97l-29.17-62.54-17.69-37.86Z"></path>
        <path class="cls-2" d="M301.5,305.81l-17.69,37.86-29.1,62.54h-6.13l29.1-62.54,20.79-44.46,8.38-18.08h6.13l29.17,62.54,29.17,62.54h-22.97l-29.17-62.54-17.69-37.86Z"></path>
        <path class="cls-2" d="M428.11,281.13c17.28,0,32.03,6.12,44.27,18.35,12.23,12.23,18.35,26.96,18.35,44.19s-6.12,32.02-18.35,44.23c-12.23,12.21-26.99,18.31-44.27,18.31h-43.06v-125.08h43.06ZM428.11,400.62c11.48,0,21.31-5.56,29.49-16.68s12.26-24.54,12.26-40.27-4.09-29.16-12.26-40.31-18-16.72-29.49-16.72h-22.19v113.98h22.19Z"></path>
        <path class="cls-2" d="M506.62,281.13h20.87v125.08h-20.87v-125.08Z"></path>
      </g>
      <g>
        <path class="cls-2" d="M18.51,248.49c-5.54-2.61-9.86-6.14-12.95-10.59-3.1-4.45-4.86-9.39-5.29-14.83h7.66c.87,5.97,3.67,11.3,8.39,15.97,4.72,4.67,11.92,7.01,21.59,7.01,5.65,0,10.56-1.03,14.74-3.1,4.18-2.06,7.41-4.89,9.69-8.47s3.42-7.55,3.42-11.89c0-5.54-1.33-9.94-3.99-13.2-2.66-3.26-5.97-5.7-9.94-7.33-3.97-1.63-9.31-3.37-16.05-5.21-7.39-1.96-13.33-3.91-17.84-5.87-4.51-1.96-8.31-4.97-11.41-9.04s-4.64-9.64-4.64-16.7c0-5.43,1.44-10.4,4.32-14.91,2.88-4.51,6.98-8.06,12.3-10.67,5.32-2.61,11.46-3.91,18.41-3.91,10.1,0,18.25,2.5,24.44,7.5,6.19,5,9.88,11.13,11.08,18.41h-7.82c-.65-2.93-2.09-5.92-4.32-8.96-2.23-3.04-5.38-5.56-9.45-7.58-4.07-2.01-8.94-3.01-14.58-3.01-7.6,0-14.01,2.09-19.22,6.27-5.21,4.18-7.82,9.75-7.82,16.7,0,5.54,1.36,9.97,4.07,13.28,2.71,3.31,6.05,5.81,10.02,7.49,3.96,1.69,9.31,3.4,16.05,5.13,7.5,2.06,13.44,4.05,17.84,5.95,4.4,1.9,8.15,4.89,11.24,8.96,3.1,4.07,4.64,9.59,4.64,16.54,0,5.11-1.36,9.94-4.07,14.5-2.72,4.56-6.71,8.28-11.97,11.16-5.27,2.88-11.65,4.32-19.14,4.32s-13.85-1.3-19.39-3.91Z"></path>
        <path class="cls-2" d="M158.3,136.88v6.19h-32.58v108.18h-7.33v-108.18h-32.58v-6.19h72.5Z"></path>
        <path class="cls-2" d="M182.42,136.88v71.52c0,12.93,2.93,22.4,8.8,28.43s13.85,9.04,23.95,9.04,17.87-2.99,23.62-8.96c5.76-5.97,8.64-15.48,8.64-28.51v-71.52h7.33v71.36c0,14.88-3.58,25.96-10.75,33.24-7.17,7.28-16.78,10.92-28.84,10.92s-21.75-3.67-29.08-11c-7.33-7.33-11-18.38-11-33.16v-71.36h7.33Z"></path>
        <path class="cls-2" d="M357.64,152.03c10.48,10.1,15.72,24.17,15.72,42.2s-5.24,32.04-15.72,42.03c-10.48,9.99-25.39,14.99-44.72,14.99h-32.1v-114.37h32.1c19.33,0,34.24,5.05,44.72,15.15ZM352.34,231.62c9.01-8.96,13.52-21.42,13.52-37.39s-4.51-28.62-13.52-37.64c-9.02-9.01-22.16-13.52-39.43-13.52h-24.76v101.99h24.76c17.27,0,30.41-4.48,39.43-13.44Z"></path>
        <path class="cls-2" d="M402.85,136.88v114.37h-7.33v-114.37h7.33Z"></path>
        <path class="cls-2" d="M452.22,245.15c-8.47-4.94-15.1-11.87-19.88-20.77-4.78-8.9-7.17-18.95-7.17-30.14s2.39-21.37,7.17-30.22c4.78-8.85,11.4-15.75,19.88-20.69,8.47-4.94,17.97-7.41,28.51-7.41s20.04,2.47,28.51,7.41c8.47,4.94,15.1,11.84,19.88,20.69,4.78,8.85,7.17,18.93,7.17,30.22s-2.39,21.24-7.17,30.14c-4.78,8.91-11.4,15.83-19.88,20.77-8.47,4.94-17.98,7.41-28.51,7.41s-20.04-2.47-28.51-7.41ZM505.17,239.69c7.28-4.24,13.01-10.26,17.19-18.08,4.18-7.82,6.27-16.94,6.27-27.37s-2.09-19.71-6.27-27.53c-4.18-7.82-9.91-13.85-17.19-18.08-7.28-4.24-15.42-6.35-24.44-6.35s-17.16,2.12-24.44,6.35c-7.28,4.24-13.03,10.26-17.27,18.08s-6.35,17-6.35,27.53,2.12,19.55,6.35,27.37,9.99,13.85,17.27,18.08c7.28,4.24,15.42,6.35,24.44,6.35s17.16-2.12,24.44-6.35Z"></path>
      </g>
      <g id="ICON">
        <path class="cls-1" d="M407.42,51.59c-16.61-6.44-38.82,4.57-38.82,4.57,5.6-10.79,14.12-20.55,14.12-20.55,2.49-32.59,36.41-41.16,73.04-23.87,35.19,16.61,156.24,43.33,156.24,43.33-30.21,3.99-59.01,12.98-93.31,39.91-80.13,67.05-126.91-44.56-126.91-44.56"></path>
        <line class="cls-1" x1="518.69" y1="94.98" x2="473.49" y2="137.45"></line>
        <path class="cls-1" d="M524.3,61.56s-27.82-23.46-52.73-23.46-29.47,14.53-28.86,22.56c.83,10.76,10.95,28.66,45.19,23.32,31.64-4.94,73.56-22.73,124.1-28.91"></path>
      </g>
    </g>
  </g>
</svg>
